<?xml version="1.0" standalone="no"?>
<!DOCTYPE svg PUBLIC "-//W3C//DTD SVG 20010904//EN"
 "http://www.w3.org/TR/2001/REC-SVG-20010904/DTD/svg10.dtd">
<svg version="1.0" xmlns="http://www.w3.org/2000/svg"
 width="1024.000000pt" height="1024.000000pt" viewBox="0 0 1024.000000 1024.000000"
 preserveAspectRatio="xMidYMid meet">
<metadata>
Created by potrace 1.14, written by Peter Selinger 2001-2017
</metadata>
<g transform="translate(0.000000,1024.000000) scale(0.100000,-0.100000)"
fill="#000000" stroke="none">
<path d="M4785 10229 c-681 -46 -1353 -230 -1964 -539 -504 -254 -913 -551
-1316 -955 -404 -403 -701 -812 -955 -1316 -875 -1732 -694 -3808 467 -5365
290 -388 659 -757 1047 -1047 646 -481 1404 -807 2190 -942 330 -56 390 -60
871 -60 481 0 541 4 871 60 786 135 1544 461 2190 942 388 290 757 659 1047
1047 481 646 807 1404 942 2190 56 330 60 390 60 871 0 481 -4 541 -60 871
-135 786 -461 1544 -942 2190 -290 388 -659 757 -1047 1047 -976 727 -2193
1087 -3401 1006z"/>
</g>
</svg>
